<?xml version="1.0" encoding="utf-8"?>
<svg width="1248px" height="500px" xmlns="http://www.w3.org/2000/svg" xmlns:bx="https://boxy-svg.com" viewBox="19.252 -103.107 1232.497 500.024">
  <defs>
    <path id="path-0" d="M 459.45974735833033 92.26233841794458 L 491.8423860101983 124.6449770698126" style="fill: none;"/>
    <path id="path-1" d="M 503.107 101.708 C 541.095 100.731 572.751 103.852 603.429 106.92 C 612.04 108.121 612.642 111.852 615.807 113.434 C 616.723 113.892 616.711 111.553 617.436 110.829 C 624.791 97.468 628.944 83.142 636.327 72.067 L 636.653 71.09 C 636.96 70.169 638.608 67.964 638.608 67.507" style="fill: none;"/>
    <bx:grid x="0" y="0" width="32.911" height="30.966"/>
  </defs>
  <desc>lommix.com social banner</desc>
  <title>Lommix-Banner</title>
  <g transform="matrix(1, 0, 0, 1, 1774.404907, 99.225395)">
    <g transform="matrix(1, 0, 0, 1, -136.788193, -23.269583)" style="transform-origin: 367.697px 258.584px;"/>
  </g>
  <path style="stroke: rgb(0, 0, 0); fill: rgb(134, 212, 222); stroke-width: 0px;" d="M 796.825 355.983 C 790.595 368.3 763.933 387.592 735.677 387.592 L 655.572 380.95 C 656.697 366.946 661.546 345.925 670.489 315.155 C 681.739 276.449 697.686 219.426 772.533 235.249 C 794.025 176.266 848.234 192.877 863.11 196.297 C 872.709 198.504 888.264 196.061 890.324 186.276 C 902.051 130.571 917.629 153.979 941.366 150.937 C 970.66 147.183 1017.094 141.877 1033.669 201.874 C 1036.042 210.463 1051.644 169.36 1073.813 174.084 C 1284.267 218.927 1114.393 278.613 1097.106 305.763 C 1113.684 316.124 1167.466 330.601 1116.633 381.434 L 811.998 380.95 C 801.52 374.346 796.825 364.908 796.825 355.983 Z"/>
  <path style="stroke: rgb(0, 0, 0); stroke-width: 0px; stroke-linecap: round; fill: rgb(239, 135, 36);" d="M 400.463 261.243 C 417.318 260.299 430.381 305.649 421.823 359.357 C 418.942 363.687 421.577 371.592 418.096 381.434 L 329.173 381.32 C 299.204 340.914 296.605 303.064 303.216 283.948 C 195.696 193.158 342.048 80.93 403.293 153.057 C 430.756 185.4 433.965 237.846 400.463 261.243 Z"/>
  <path style="stroke: rgb(0, 0, 0); fill: rgb(216, 116, 22); stroke-width: 0px;" d="M 311.02 145.591 C 301.864 149.868 399.42 110.176 404.984 219.893 C 405.968 246.92 389.981 257.089 385.946 273.224 C 374.775 317.887 364.532 336.697 364.29 336.632 C 364.049 336.567 371.686 356.846 353.905 381.434 L 136.394 381.32 C 133.581 357.494 134.02 336.727 115.988 308.418 C 26.891 228.34 86.222 117.614 193.965 126.516 C 222.36 100.736 241.646 120.694 242.25 137.764 L 274.997 148.145 L 311.02 145.591 Z"/>
  <g transform="matrix(0.838046, 0, 0, 0.925921, 156.122437, 19.113319)" style="">
    <path style="stroke: rgb(0, 0, 0); stroke-width: 0px; paint-order: fill; fill-rule: evenodd; fill: rgb(216, 116, 22); transform-box: fill-box; transform-origin: 67.5765% 62.3489%;" d="M 2.88 95.85 C 10.796 87.704 25.394 79.565 22.717 62.156 C 21.954 57.196 11.305 40.095 15.7 35.754 C 19.449 32.051 42.488 46.055 43.295 39.974 C 43.855 35.757 35.282 18.074 39.306 14.327 C 44.645 9.355 57.988 22.28 67.56 18.224 C 74.003 15.494 68.779 -2.475 76.98 -5.293 C 80.372 -6.459 88.194 0.855 96.711 3.589 C 103.34 5.717 107.242 -19.427 113.928 -19.427 C 122.353 -19.427 131.231 -5.728 137.593 -7.352 C 144.351 -9.077 147.543 -25.392 155.264 -24.087 C 161.347 -23.059 164.045 -8.816 171.385 -5.807 C 176.859 -3.563 190.894 -17.184 196.791 -14.234 C 203.288 -10.983 199.799 3.035 206.452 6.817 C 212.747 10.396 225.858 -3.404 231.965 0.353 C 238.127 4.143 231.3 18.893 236.947 22.567 C 241.785 25.715 254.516 14.1 259.544 17.45 C 262.427 19.371 259.88 28.014 262.893 34.359 C 264.342 37.411 276.951 30.569 278.909 32.485 C 281.923 35.435 275.92 48.649 278.536 50.946 C 286.286 57.754 295.932 55.418 299 59.638 C 302.685 64.707 290.452 70.716 291.795 76.538 C 296.393 96.479 299.713 135.404 216.323 150.243 C 227.026 163.271 217.104 171.06 209.768 171.888 C 204.584 172.474 178.079 173.955 171.989 170.541 C 162.314 167.613 135.07 160.185 127.958 155.513 C -34.955 156.011 37.748 128.526 2.88 95.85 Z"/>
    <path style="stroke: rgb(0, 0, 0); stroke-width: 0px; paint-order: fill; fill-rule: evenodd; fill: rgb(216, 116, 22);" d="M -87.605 384.114 C -86.254 374.55 -133.434 377.899 -135.973 368.982 C -139.174 357.747 -117.647 341.247 -123.016 333.316 C -128.717 324.89 -159.582 326.184 -160.143 315.445 C -160.583 306.982 -135.722 298.538 -133.041 287.727 C -131.04 279.664 -161.127 265.582 -158.005 256.715 C -154.565 246.946 -127.762 246.829 -123.415 236.67 C -119.3 227.059 -149.361 214.268 -144.852 204.845 C -140.304 195.341 -110.903 199.426 -106.37 190.648 C -102.487 183.125 -128.432 170.097 -124.252 162.253 C -121.856 157.755 -105.18 158.212 -94.792 152.035 C -89.796 149.064 -107.02 134.577 -104.282 131.316 C -100.064 126.292 -73.768 129.802 -70.587 125.533 C -61.157 112.883 -69.066 100.813 -62.561 95.287 C -54.748 88.647 -39.181 102.917 -29.11 99.146 C -22.943 96.837 -22.126 81.566 -13.984 79.688 C -8.848 78.503 3.096 90.361 8.847 89.824 C 44.98 86.454 91.967 99.513 133.509 174.719 C 153.123 156.016 171.047 166.598 175.339 176.098 C 178.373 182.813 191.129 217.654 187.238 226.936 C 185.59 240.835 147.884 275.61 142.094 286.682 C 156.17 335.359 163.544 368.197 165.445 391.308 L -89.618 391.184 C -88.707 388.642 -87.968 386.685 -87.605 384.114 Z"/>
    <g transform="matrix(1, 0, 0, 1, -150.691025, -158.89653)" style="transform-origin: 367.697px 258.584px;">
      <g transform="matrix(0.78393, 0, 0, 0.78393, 524.959351, 230.335922)">
        <ellipse style="stroke: rgb(0, 0, 0); paint-order: stroke; stroke-width: 0px;" cx="20.34" cy="90.046" rx="12.335" ry="12.678" transform="matrix(0.999709, 0.024132, -0.024132, 0.999709, -273.2709, -32.278116)"/>
      </g>
      <path style="stroke: rgb(0, 0, 0); stroke-width: 0px;" d="M 344.525 293.458 C 323.533 293.986 316.257 289.395 316.257 289.395 C 329.154 299.53 340.268 298.524 349.54 298.891 C 345.508 295.844 355.143 293.191 344.525 293.458 Z"/>
      <path style="fill: rgb(216, 216, 216); stroke: rgb(0, 0, 0); fill-opacity: 0; stroke-linecap: round; stroke-width: 0px;" d="M 304.235 258.878 C 304.235 246.69 334.878 249.619 342.873 265.817 C 351.932 273.234 367.779 245.062 371.745 250.241"/>
      <ellipse style="stroke: rgb(0, 0, 0); fill: rgb(255, 255, 255); stroke-opacity: 0; stroke-width: 0px;" cx="330.741" cy="273.684" rx="2.78" ry="4.541"/>
      <ellipse style="stroke: rgb(0, 0, 0); paint-order: stroke; stroke-width: 0px;" cx="20.34" cy="90.046" rx="9.67" ry="9.939" transform="matrix(0.999709, 0.024132, -0.024132, 0.999709, 334.653386, 185.475179)"/>
      <ellipse style="stroke: rgb(0, 0, 0); fill: rgb(255, 255, 255); stroke-opacity: 0; stroke-width: 0px;" cx="358.421" cy="273.684" rx="2.779" ry="4.541"/>
    </g>
    <path style="stroke: rgb(52, 44, 207); stroke-width: 0px; fill: rgb(47, 52, 216); transform-origin: 126.535px 66.323px;" d="M 24.019 41.626 C 20.397 45.251 17.283 58.576 17.283 58.576 C 21.189 58.811 289.081 114.117 286.083 120.791 C 283.085 127.465 296.089 117.151 288.191 106.021 C 280.293 94.891 27.641 38.001 24.019 41.626 Z" transform="matrix(0.981627, -0.190809, 0.190809, 0.981627, -0.00001, 0.000019)"/>
    <path style="stroke: rgb(0, 0, 0);" d="M 193.486 106.823 C 193.486 107.222 192.02 115.107 192.02 115.107 C 192.02 113.228 223.825 109.166 223.825 110.855 C 223.825 110.058 225.716 97.209 225.716 97.209 C 225.641 97.059 193.324 106.101 193.486 106.823 Z"/>
    <path style="stroke: rgb(0, 0, 0);" d="M 153.544 92.493 C 153.544 92.892 153.544 107.557 153.544 107.557 C 157.891 105.963 179.551 110.124 185.495 114.879 C 186.871 116.808 185.779 105.887 185.779 105.887 C 186.269 102.701 154.028 88.95 153.544 92.493 Z"/>
  </g>
  <path style="stroke: rgb(0, 0, 0); fill: rgb(134, 212, 222); stroke-width: 0px; transform-box: fill-box; transform-origin: 50% 50%;" d="M 587.174 176.787 C 592.428 170.248 663.193 162.344 651.949 200.234 C 689.649 272.984 659.672 283.321 653.661 393.261 C 653.661 393.261 608.694 437.673 603.218 395.729 C 577.259 359.185 545.435 244.693 571.3 220.732" transform="matrix(-0.731354, 0.681998, -0.681998, -0.731354, -0.000007, 0.000008)"/>
  <ellipse style="paint-order: stroke; stroke: rgb(0, 0, 0); stroke-width: 0px; fill: rgb(118, 185, 194); transform-box: fill-box; transform-origin: 50% 50%;" cx="779.275" cy="592.172" rx="27.688" ry="32.006" transform="matrix(0.981627, -0.190809, 0.190809, 0.981627, 41.006134, -537.659139)"/>
  <path style="stroke: rgb(0, 0, 0); fill: rgb(149, 3, 3); stroke-width: 0px; transform-origin: 1000.63px 77.32px;" d="M 988.493 73.491 C 987.568 72.566 1031.482 47.887 1047.938 44.109 C 1064.394 40.331 1164.442 39.688 1163.652 46.798 L 1145.096 63.965 C 1145.096 63.965 1079.455 44.527 1033.739 65.933 L 996.402 90.478 L 988.493 73.491 Z">
    <animateTransform type="skewY" additive="sum" attributeName="transform" values="0;-5;5;0" dur="4.02s" fill="freeze" begin="-0.02s" keyTimes="0; 0.31589; 0.70977; 1" calcMode="spline" keySplines="0 0 1 1; 0.42 0 0.58 1; 0 0 1 1" repeatCount="indefinite"/>
  </path>
  <path style="stroke: rgb(0, 0, 0); fill: rgb(149, 3, 3); stroke-width: 0px; transform-origin: 957.927px 48.061px;" d="M 1003.129 84.748 C 1002.637 84.891 1026.026 105.506 1034.791 111.051 C 1043.556 116.597 1096.845 141.424 1096.424 138.397 L 1086.541 127.003 C 1086.541 127.003 1051.578 118.624 1027.229 98.873 L 1007.342 79.926 L 1003.129 84.748 Z">
    <animateTransform type="skewY" additive="sum" attributeName="transform" values="0;3;-3;0" dur="4.02s" fill="freeze" begin="-0.02s" keyTimes="0; 0.31589; 0.70977; 1" calcMode="spline" keySplines="0 0 1 1; 0.42 0 0.58 1; 0 0 1 1" repeatCount="indefinite"/>
  </path>
  <path style="stroke: rgb(0, 0, 0); paint-order: fill; stroke-opacity: 0; fill: rgb(134, 212, 222); transform-box: fill-box; transform-origin: 50% 50%;" d="M 1092.173 239.919 C 1078.844 278.914 922.564 251.457 896.437 275.027 C 864.244 304.071 854.03 220.382 810.836 199.558 C 796.746 160.132 822.812 154.754 816.083 109.857 C 798.335 -8.56 966.127 -35.581 1008.137 61.492 C 1018.948 86.472 1014.964 163.505 1014.964 163.505 C 996.666 134.788 1100.845 214.549 1092.173 239.919 Z" transform="matrix(0.981627, -0.190809, 0.190809, 0.981627, -0.012498, -0.05788)"/>
  <ellipse style="fill: rgb(255, 255, 255); paint-order: stroke; stroke-width: 6px; stroke: rgb(255, 255, 255); transform-box: fill-box; transform-origin: 50% 50%;" cx="800.97" cy="659.243" rx="37.878" ry="34.745" transform="matrix(0.981627, -0.190809, 0.190809, 0.981627, 50.797325, -547.750706)"/>
  <ellipse style="fill: rgb(255, 255, 255); paint-order: stroke; stroke-width: 6px; stroke: rgb(255, 255, 255); transform-origin: 893.061px 661.071px;" cx="893.071" cy="661.071" rx="40.416" ry="38.472" transform="matrix(0.981627, -0.190809, 0.190809, 0.981627, 25.05167, -559.668959)"/>
  <path style="fill: rgb(255, 255, 255); paint-order: fill; stroke: rgb(0, 0, 0); stroke-width: 0px; transform-box: fill-box; transform-origin: 50% 50%;" d="M 870.781 150.628 C 870.602 151.107 869.956 158.423 869.956 159.302 C 869.956 159.476 869.886 163.883 869.886 165.021 C 869.886 166.15 869.534 168.472 870.852 172.587 C 871.662 175.129 871.573 175.457 872.642 177.016 C 874.046 179.061 878.308 178.363 880.385 175.607 C 881.98 173.493 881.949 168.143 881.962 167.984 C 882.346 162.942 880.562 156.835 880.562 155.147 C 880.562 154.989 883 151.125 882.491 150.444 C 881.477 149.084 870.852 149.323 870.852 150.628" transform="matrix(0.981627, -0.190809, 0.190809, 0.981627, 0, -0.000005)"/>
  <g transform="matrix(0.604894, -0.117579, 0.117579, 0.604894, 620.452881, -8.98705)" style="transform-origin: 277.141px 109.025px;">
    <g transform="matrix(1, 0, 0, 1, -5.678296, 0.491333)">
      <ellipse style="stroke: rgb(0, 0, 0); paint-order: stroke; stroke-width: 12.6479px;" cx="20.34" cy="90.046" rx="12.335" ry="12.678" transform="matrix(0.999709, 0.024132, -0.024132, 0.999709, 260.816685, 18.074693)"/>
      <ellipse style="stroke: rgb(140, 37, 37); fill: rgb(255, 255, 255); stroke-opacity: 0; paint-order: stroke; stroke-width: 12.6479px;" cx="8.84" cy="101.025" rx="4.968" ry="5.311" transform="matrix(0.999709, 0.024132, -0.024132, 0.999709, 261.361208, 15.799017)"/>
    </g>
  </g>
  <g transform="matrix(0.749005, 0, 0, 0.749005, 107.216995, -352.670929)" style="">
    <ellipse style="stroke: rgb(0, 0, 0); paint-order: stroke; stroke-width: 12.6479px; transform-box: fill-box; transform-origin: 50% 50%;" cx="20.34" cy="90.046" rx="9.67" ry="9.939" transform="matrix(0.985946, -0.167065, 0.167065, 0.985946, 944.798326, 525.763207)"/>
    <ellipse style="stroke: rgb(140, 37, 37); fill: rgb(255, 255, 255); stroke-opacity: 0; paint-order: stroke; stroke-width: 12.6479px; transform-box: fill-box; transform-origin: 50% 50%;" cx="8.84" cy="101.025" rx="3.895" ry="4.163" transform="matrix(0.985946, -0.167065, 0.167065, 0.985946, 949.660671, 522.250738)"/>
  </g>
  <path style="paint-order: stroke; stroke: rgb(0, 0, 0); stroke-width: 0px; fill: rgb(144, 229, 241); transform-origin: 974.948px 26.171px;" d="M 948.97 24.305 C 951.745 -10.884 1007.494 -6.989 997.407 34.978 C 991.598 54.571 968.582 58.495 968.587 52.477" transform="matrix(0.985946, -0.167065, 0.167065, 0.985946, 0, 0.000002)"/>
  <path style="fill: rgb(255, 255, 255); paint-order: fill; stroke: rgb(0, 0, 0); stroke-width: 0px; transform-box: fill-box; transform-origin: 50% 50%;" d="M 884.76 149.322 C 884.614 149.797 884.083 154.716 884.083 155.587 C 884.083 155.762 883.775 160.306 883.775 161.434 C 883.775 162.553 883.352 165.944 884.168 170.142 C 884.707 172.921 884.879 173.573 886.779 175.98 C 888.231 177.82 891.712 175.631 893.416 172.899 C 894.724 170.804 894.955 166.298 894.965 166.139 C 895.28 161.139 895.436 156.762 895.436 155.087 C 895.436 154.928 894.782 149.815 894.363 149.137 C 893.532 147.791 884.818 148.027 884.818 149.32" transform="matrix(0.981627, -0.190809, 0.190809, 0.981627, 0, 0.000006)"/>
  <path d="M 885.398 158.313 C 870.063 159.651 855.261 162.578 858.98 153.422 C 862.7 144.266 869.225 144.187 875.744 144.328 C 878.992 144.397 887.024 144.382 890.218 144.05 C 892.971 143.763 894.124 141.658 902.401 149.328 C 910.678 156.998 905.837 165.413 885.398 158.313 Z" style="fill: rgb(250, 220, 164); paint-order: fill; stroke: rgb(0, 0, 0); stroke-width: 0px; transform-origin: 888.959px 155.509px;" transform="matrix(0.981627, -0.190809, 0.190809, 0.981627, -0.000002, 0.000034)"/>
  <ellipse style="stroke: rgb(0, 0, 0); paint-order: stroke; stroke-width: 6px; transform-box: fill-box; transform-origin: 50% 50%;" cx="834.754" cy="697.026" rx="10.041" ry="5.268" transform="matrix(0.981627, -0.190809, 0.190809, 0.981627, 40.268063, -551.286922)"/>
  <path d="M 979.149 25.776 C 979.149 31.54 975.548 36.214 971.106 36.214 C 970.816 36.214 970.532 36.194 970.251 36.155 C 970.228 31.193 967.272 26.942 963.077 25.148 C 963.327 19.674 966.825 15.338 971.106 15.338 C 975.548 15.338 979.149 20.01 979.149 25.776 Z" style="stroke: rgb(0, 0, 0); transform-box: fill-box; transform-origin: 50% 50%;" transform="matrix(0.981627, -0.190809, 0.190809, 0.981627, 0, -0.000001)"/>
  <path style="fill: rgb(216, 216, 216); fill-opacity: 0; stroke: rgb(251, 132, 4); stroke-width: 4px;" d="M 311.529 195.01 L 311.529 194.253 C 318.153 204.662 309.49 261.836 305.993 256.34"/>
  <path style="fill: rgb(216, 216, 216); fill-opacity: 0; stroke: rgb(251, 132, 4); stroke-width: 4px; stroke-linecap: round;" d="M 290.141 319.732 L 289.844 314.205 C 296.468 324.614 286.522 339.488 290.179 365.675"/>
  <path style="fill: rgb(216, 216, 216); fill-opacity: 0; stroke: rgb(251, 132, 4); stroke-linecap: round; stroke-width: 3px; transform-box: fill-box; transform-origin: 50% 50%;" d="M 344.512 376.026 C 335.394 385.284 330.073 340.342 341.613 340.512" transform="matrix(-1, 0, 0, -1, -0.000036, 0.000032)"/>
  <path style="fill: rgb(216, 216, 216); fill-opacity: 0; stroke: rgb(251, 132, 4); stroke-width: 4px; transform-box: fill-box; transform-origin: 50% 50%;" d="M 214.223 376.766 L 214.223 377.283 C 225.563 370.179 210.733 331.158 204.746 334.909" transform="matrix(-1, 0, 0, -1, 0.000006, -0.000012)"/>
  <path style="stroke: rgb(0, 0, 0); stroke-width: 0px; fill: rgb(188, 97, 12); stroke-linecap: round; transform-box: fill-box; transform-origin: 50% 50%;" d="M 223.998 293.355 C 212.435 307.236 136.589 302.569 131.579 250.212 C 128.764 238.358 90.954 230.313 86.222 217.527 C 96.059 117.303 78.235 136.855 155.1 147.485 C 219.076 149.406 266.024 179.585 277.201 200.675 C 426.728 182.787 407.751 379.234 306.603 374.527 C 261.247 372.416 217.858 336.652 223.998 293.355 Z" transform="matrix(-1, 0, 0, -1, 0.000006, 0.000052)"/>
  <path style="fill: rgb(216, 216, 216); fill-opacity: 0; stroke-linecap: round; stroke: rgb(226, 215, 215);" d="M 885.884 129.136 C 866.465 111.802 872.297 82.599 876.385 86.044"/>
  <path style="stroke: rgb(0, 0, 0); fill: rgb(250, 220, 164); stroke-width: 0px;" d="M 526.968 247.564 C 526.968 247.564 509.004 246.732 509.004 245.703 C 509.004 244.675 501.976 185.607 501.976 185.607 C 501.976 185.607 518.902 174.935 513.733 173.517 C 508.564 172.099 545.326 192.503 550.188 208.095 C 555.049 223.687 525.423 250.051 526.968 247.564 Z"/>
  <g transform="matrix(0.97437, -0.224951, 0.224951, 0.97437, -42.888565, 21.150257)" style="transform-origin: 310.639px 314.176px;">
    <g>
      <g transform="matrix(0.994522, 0.104529, -0.104529, 0.994522, 96.366501, 28.815214)" style="transform-origin: 416.138px 242.212px;">
        <g>
          <path style="stroke: rgb(0, 0, 0); stroke-width: 0px; fill: rgb(188, 97, 12); transform-origin: 370.192px 286.924px;" d="M 349.046 395.276 C 350.323 393.726 373.571 403.11 394.741 379.371 C 428.277 316.31 418.709 282.228 411.856 175.079 C 411.856 175.079 405.916 147.403 389.848 157.041 C 365.59 149.992 361.34 164.263 354.936 206.207 C 324.84 276.799 275.836 335.362 306.084 359.324" transform="matrix(0.669131, 0.743145, -0.743145, 0.669131, -0.000022, -0.00001)"/>
          <path style="stroke: rgb(0, 0, 0); fill: rgb(188, 97, 12); stroke-width: 0px; transform-box: fill-box; transform-origin: 50% 50%;" d="M 452.974 273.122 C 453.908 275.172 474.589 243.337 487.965 246.714 C 520.126 254.833 582.619 214.179 577.163 152.557 C 576.235 140.572 493.906 204.443 489.481 194.897 C 482.236 192.753 539.576 106.406 543.056 110.983 C 533.378 96.258 451.625 113.243 454.176 164.095 C 457.302 226.411 425.375 233.579 426.841 242.662 C 419.694 250.662 476.77 219.473 452.974 273.122 Z"/>
        </g>
      </g>
    </g>
  </g>
  <path style="stroke: rgb(0, 0, 0); fill: rgb(250, 220, 164); stroke-width: 0px; transform-box: fill-box; transform-origin: 50% 50%;" d="M 488.039 155.047 C 456.849 153.006 448.08 211.436 460.704 211.436 C 473.328 211.436 488.808 222.584 493.314 219.229 C 494.456 218.378 518.216 175.5 508.442 171.835 C 499.08 168.322 488.716 154.05 488.039 155.047 Z" transform="matrix(0.961262, -0.275637, 0.275637, 0.961262, 0, -0.000001)"/>
  <path style="fill: rgb(216, 216, 216); fill-opacity: 0; stroke: rgb(251, 132, 4); stroke-width: 3px; transform-origin: 314.529px 161.957px;" d="M 280.48 173.337 C 282.014 175.986 300.42 166.353 298.133 165.507 C 289.8 153.055 312.412 150.425 312.091 155.252 C 321.384 140.877 334.819 151.404 332.584 159.781 C 330.992 166.716 373.634 155.228 392.08 165.594" transform="matrix(-0.981627, -0.190809, 0.190809, -0.981627, 0.000014, 0.000002)"/>
  <path style="fill: rgb(216, 216, 216); fill-opacity: 0; stroke-width: 4px; stroke: rgb(195, 226, 251);" d="M 903.901 284.997 C 903.901 255.146 990.433 265.289 1011.966 222.641"/>
  <path style="fill: rgb(216, 216, 216); fill-opacity: 0; stroke-width: 4px; stroke: rgb(195, 226, 251);" d="M 877.696 287.185 C 873.087 269.728 861.818 287.387 831.279 246.912"/>
  <path style="fill: rgb(216, 216, 216); fill-opacity: 0; stroke-width: 4px; stroke: rgb(195, 226, 251);" d="M 891.254 305.763 C 888.954 337.957 906.279 377.952 906.555 374.086"/>
  <path style="stroke: rgb(0, 0, 0); stroke-width: 0px; fill: rgb(235, 206, 151);" d="M 470.055 155.021 C 470.055 155.021 470.171 158.571 471.723 161.151 C 473.275 163.731 486.485 174.097 489.498 157.522 C 492.511 140.948 472.359 136.251 470.055 155.021 Z"/>
  <path style="stroke: rgb(0, 0, 0); fill: rgb(149, 3, 3); stroke-width: 0px; transform-box: fill-box; transform-origin: 50% 50%;" d="M 809.172 62.092 C 800.316 58.983 794.723 77.614 800.589 84.099 C 801.794 92.993 998.874 97.438 1000.715 89.167 C 1002.557 80.898 1005.643 76.067 996.166 65.563 C 986.689 55.058 818.028 65.2 809.172 62.092 Z" transform="matrix(0.981627, -0.190809, 0.190809, 0.981627, -0.028343, -0.118477)"/>
  <path d="M 1029.443 274.497 C 1029.443 243.15 1048.395 177.521 1114.585 177.521 C 1188.023 177.521 1207.419 258.949 1212.082 286.478 C 1253.239 316.57 1250.583 367.051 1250.583 381.434 L 1132.963 381.434 C 1123.416 371.887 1128.522 372.33 1124.323 362.192 C 1066.708 333.482 1029.443 305.098 1029.443 274.497 Z" style="stroke: rgb(0, 0, 0); fill: rgb(134, 212, 222); stroke-width: 0px;"/>
  <path style="fill: rgb(216, 216, 216); fill-opacity: 0; stroke: rgb(251, 132, 4); stroke-linecap: round; stroke-width: 3px;" d="M 291.691 375.672 C 281.651 381.434 281.263 370.277 287.504 370.521"/>
  <g transform="matrix(0.679594, -0.247352, 0.247352, 0.679594, -301.967905, 187.030386)" style="transform-origin: 1151.7px -212.376px;">
    <path fill="none" d="M 989.427 -69.593 L 1313.97 -69.593 L 1313.97 -355.16 L 989.427 -355.16 L 989.427 -69.593 Z" style="transform-box: fill-box; transform-origin: 50% 50%; stroke-width: 0px;" transform="matrix(-1, 0, 0, -1, -0.000009, 0.000027)"/>
    <g fill-rule="nonzero" transform="matrix(-0.857092, 0, 0, 0.904694, 1313.964395, -355.153697)" style="">
      <path d="M277.141 209.379l-26.65 13.503c4.936 11.808 4.288 20.339 2.82 25.489-1.484 5.206-5.688 13.994-6.516 15.703-.402.832-.814 1.662-1.232 2.487l8.678-3.365-3.504 12.794 10.468-8.308 3.37 11.984c5.304-7.189 9.33-15.079 11.986-23.5 5.867-18.602 3.725-35.393.58-46.787" fill="#f98a31" style="stroke-width: 0px;"/>
      <path d="M264.575 279.665l-3.37-11.984-10.469 8.309 3.506-12.794-8.679 3.364c.418-.824.831-1.655 1.233-2.486.828-1.709 5.032-10.497 6.515-15.702 1.468-5.151 2.116-13.682-2.82-25.489l26.651-13.504c3.144 11.393 5.287 28.185-.582 46.787-2.654 8.421-6.681 16.311-11.985 23.499m15.358-73.334l-.609-2.014-33.412 16.929.69 1.537c5.224 11.638 4.686 19.812 3.316 24.62-1.434 5.03-5.805 14.112-6.298 15.132a146.141 146.141 0 01-3.364 6.529l-2.323 4.241 11.054-4.287-4.504 16.439 14.76-11.714 3.814 13.558 2.145-2.669c6.638-8.255 11.593-17.475 14.725-27.404 6.497-20.597 3.589-39.047.006-50.897" fill="#231f20" style="stroke-width: 0px; fill-opacity: 0;"/>
      <path d="M253.727 273.616l-2.988 2.378 3.482-12.729c.119.566.223 1.154.294 1.764.388 3.294-.081 6.223-.788 8.587M277.641 212.756c-.283 1.035-.894 1.94-1.494 2.835-2.906 4.294-5.858 8.621-9.504 12.338-.105.11-.224.227-.352.35a16.347 16.347 0 00-4.774 8.92 58.641 58.641 0 01-1.356 5.881c-1.258 4.435-3.729 12.752-10.81 20.503a42.566 42.566 0 01-2.399 2.434l-1.388.541c.411-.822.835-1.657 1.235-2.48.823-1.718 5.035-10.505 6.516-15.705.859-3.022 1.424-7.211.765-12.526-.471-3.764-1.541-8.081-3.588-12.964l.001-.002a6619.94 6619.94 0 0014.785-7.491c3.906-1.975 7.822-4.398 11.88-5.974.424 1.105.812 2.129.483 3.34M264.832 279.311c-.083.117-.177.234-.26.352l-3.175-11.315c.506.423.906.823 1.069 1.139 1.966 3.66 2.377 7.271 2.366 9.824" fill="#e56c2c" style="stroke-width: 0px;"/>
    </g>
    <g fill-rule="nonzero" transform="matrix(-0.857092, 0, 0, 0.904694, 1313.964395, -355.153697)" style="">
      <path d="M324.693 136.489c-.833-1.352-3.475-2.729-11.306-1.621-11.317 1.603-22.235 7.924-32.449 18.788-.223.237-.406.432-.548.579-.49.504-49.537 50.65-97.845 64.293-20.632 5.827-37.82 3.583-51.63 1.779-5.632-.735-10.66-1.392-15.095-1.392-7.017 0-12.548 1.644-16.643 7.22-5.783 7.875-6.654 20.049-5.017 28.027 1.088 5.3 3.283 9.266 6.021 10.88 4.477 2.639 8.741 3.955 13.826 4.269 33.917 2.091 52.598 3.242 82.665-5.415 8.747-2.519 15.65-4.506 24.626-8.629 12.025-5.523 43.967-20.193 56.166-51.791 2.431-6.299 3.976-12.992 4.592-19.895l.216-2.413 1.549 1.863c1.884 2.263 4.469 3.664 6.917 3.746 1.257.033 2.353-.29 2.924-.89 1.233-1.295 1.041-4.792-1.21-7.932l-1.235-1.722 2.114.141c2.934.198 4.88-.301 5.776-1.479 1.227-1.612.403-4.522-.258-6.861-.649-2.299-1.211-4.285.124-5.257 1.371-.996 3.096.224 5.094 1.635 2.041 1.443 4.577 3.241 6.617 2.64 1.629-.48 2.352-2.355 3.704-6.214.297-.847.618-1.765.986-2.753 2.565-6.908 5.177-11.468 7.085-14.797 2.201-3.842 3.06-5.455 2.234-6.799" fill="#f15a29" style="stroke-width: 0px;"/>
      <path d="M181.977 267.545c-6.167 1.271-14.937 3.858-24.147 4.216-22.107.857-48.661-1.124-55.164-4.208-.21-2.96-.406-4.571-1.496-7.422 1.37-1.199-.781-2.91.189-4.36 7.78 1.25 37.378 4.884 50.908 5.194 9.76.221 20.324-1.96 28.604-3.62.64 3.09 3.297 7.051 4.357 9.96M299.107 174.896c-.9 1.18-2.84 1.68-5.78 1.479l-1.92-.129c-.04-.18.08-.371.2-.531 1.04-1.38 2.87-1.769 2.87-1.769 1.29-.28 1.5.059 2.34-.13 1.18-.26 2.189-1.24 2.83-2.37.189 1.33.12 2.58-.54 3.45M322.376 143.426c-1.899 3.32-4.47 7.84-7 14.66-.37.99-.689 1.91-.989 2.75-1.351 3.86-2.071 5.74-3.7 6.22-2.04.6-4.581-1.2-6.621-2.64-1.25-.88-2.389-1.69-3.4-1.93.21-.24.41-.4.53-.5 2.14-1.67 4.93-.33 6.941-.51 2.559-.22 3.349-2.83 7.279-8.76 2.811-4.25 5.311-8.02 6.96-9.29M293.117 186.286c-.6.34-1.439.51-2.38.49-2.45-.08-5.03-1.48-6.92-3.75l-1.54-1.86-.22 2.42c-.62 6.9-2.16 13.591-4.589 19.89-2.901 7.52-6.921 14.081-11.521 19.78a83.113 83.113 0 01-5.47 6.131c-5.45 5.569-11.36 10.159-17.03 13.909-.88.58-1.76 1.14-2.63 1.69-7.889 4.941-15.07 8.24-19.52 10.28a118.34 118.34 0 01-8.27 3.45l-3.2-8.789c12.265-3.805 21.408-8.91 27.373-12.789 7.628-4.962 30.107-20.96 41.317-50.001a96.361 96.361 0 002.68-7.96c.84-.521 2.05-1.071 3.28-.761 1.65.41 2.161 2.07 3.42 3.74 1.38 1.82 3.38 3.32 5.22 4.13" fill="#c54827" style="stroke-width: 0px;"/>
      <path d="M314.388 160.838c-1.353 3.858-2.075 5.734-3.704 6.214-2.04.6-4.576-1.197-6.617-2.64-1.998-1.411-3.723-2.631-5.094-1.636-1.335.973-.773 2.958-.124 5.258.661 2.339 1.484 5.249.258 6.861-.897 1.178-2.842 1.676-5.777 1.479l-2.113-.141 1.234 1.722c2.251 3.14 2.444 6.637 1.21 7.932-.57.599-1.667.923-2.923.889-2.449-.082-5.034-1.482-6.917-3.746l-1.549-1.862-.216 2.413c-.616 6.903-2.161 13.596-4.593 19.895-12.198 31.598-44.14 46.268-56.165 51.791-8.976 4.123-15.88 6.11-24.626 8.629-30.067 8.657-48.748 7.505-82.665 5.415-5.085-.314-9.349-1.63-13.826-4.269-2.739-1.614-4.934-5.58-6.022-10.88-1.637-7.978-.765-20.152 5.018-28.027 4.094-5.576 9.626-7.22 16.643-7.22 4.434 0 9.463.656 15.095 1.392 13.81 1.803 30.997 4.048 51.629-1.78 48.309-13.642 97.356-63.788 97.846-64.293.142-.146.325-.341.548-.578 10.214-10.864 21.132-17.185 32.449-18.788 7.831-1.108 10.473.269 11.306 1.621.826 1.344-.034 2.956-2.235 6.799-1.907 3.329-4.519 7.889-7.085 14.797-.367.988-.688 1.906-.985 2.753m12.008-25.397c-2.51-4.08-10.624-2.93-13.29-2.553-11.779 1.668-23.092 8.195-33.625 19.398-.214.228-.39.415-.527.555-.486.501-49.156 50.264-96.954 63.763-20.236 5.714-37.198 3.5-50.826 1.72-14.655-1.914-26.228-3.425-33.609 6.627-6.177 8.412-7.146 20.934-5.364 29.613 1.218 5.939 3.692 10.272 6.964 12.201 4.764 2.807 9.303 4.208 14.722 4.542 13.324.821 24.312 1.499 34.565 1.499 16.017 0 30.243-1.653 48.78-6.99 8.821-2.54 15.788-4.545 24.9-8.731 12.228-5.616 44.706-20.532 57.196-52.889a74.995 74.995 0 004.499-18.3c2.028 1.771 4.436 2.798 6.843 2.879 1.859.057 3.468-.488 4.441-1.509 1.778-1.868 1.695-5.525-.042-8.863 2.652-.097 4.542-.868 5.63-2.297 1.83-2.406.857-5.849.075-8.616-.294-1.041-.731-2.586-.608-3.072.506.044 1.845.99 2.745 1.628 2.394 1.692 5.378 3.8 8.337 2.924 2.686-.79 3.618-3.447 5.028-7.471.292-.835.61-1.742.972-2.718 2.508-6.753 5.073-11.23 6.946-14.499 2.298-4.011 3.684-6.432 2.202-8.841" fill="#231f20" style="stroke-width: 0px; fill-opacity: 0;"/>
    </g>
    <path d="M 1278.15 -158.64 C 1276.61 -158.15 1275.03 -157.86 1273.42 -157.78 L 1272.42 -157.72 L 1272.23 -156.68 C 1272.12 -156.13 1272 -155.57 1271.87 -155.03 C 1268.24 -140.6 1253.61 -132.69 1247.49 -129.95 C 1223.44 -119.2 1200.13 -134.15 1199.9 -134.3 C 1192.92 -138.87 1189.08 -143.88 1181.96 -154.22 C 1167.61 -175.09 1160.39 -187.84 1155.12 -197.16 C 1149.4 -207.26 1145.96 -213.35 1138.28 -221.37 C 1119.78 -240.69 1100.69 -247.69 1087.93 -250.15 C 1077.96 -252.08 1047.61 -257.94 1033.09 -238.89 C 1026.82 -230.67 1021.34 -214.53 1030.82 -184.33 C 1032.96 -177.52 1035.62 -169.05 1041.95 -159.93 C 1044.4 -156.39 1047.09 -153.21 1049.46 -150.4 C 1053.2 -145.97 1056.74 -141.78 1055.86 -139.93 C 1055.62 -139.43 1055.02 -139.02 1054.11 -138.74 C 1046.92 -141.17 1040.34 -144.74 1034.57 -149.34 C 1006.54 -171.68 1001.25 -212.88 1008.2 -241.71 C 1015.53 -272.17 1030.3 -285.85 1041.39 -291.96 C 1052.1 -297.86 1062.38 -297.74 1082.87 -297.48 L 1083.89 -297.47 C 1103.02 -297.23 1117.88 -293.75 1140.38 -288.49 C 1156.02 -284.83 1159.92 -282.99 1162.02 -281.99 C 1173.17 -276.71 1183.8 -267.79 1193.67 -255.44 C 1200.44 -246.96 1203.76 -240 1206.69 -233.85 C 1210.55 -225.77 1213.88 -218.8 1223.42 -211.38 C 1234.66 -202.63 1242.1 -196.85 1253.05 -195.42 C 1254.17 -195.28 1255.29 -195.14 1256.41 -195.02 C 1262.36 -194.35 1267.05 -193.82 1269.42 -190.01 C 1269.82 -189.37 1270.13 -188.68 1270.35 -187.94 C 1265.74 -188.89 1261.27 -189.02 1257.03 -188.33 L 1256.78 -188.29 C 1255.52 -188.12 1252.82 -187.71 1250.49 -186.98 L 1249.94 -186.81 C 1248.42 -186.34 1247.41 -186.03 1247.73 -184.72 L 1247.74 -184.72 C 1248.07 -183.39 1249.12 -183.67 1250.58 -184.06 C 1252.06 -184.46 1254.78 -185.19 1257.16 -185.6 C 1257.45 -185.64 1257.65 -185.66 1257.73 -185.67 C 1262.83 -186.24 1267.99 -185.59 1271.85 -184.82 L 1273.48 -184.4 L 1273.48 -184.47 C 1276.32 -183.81 1278.14 -183.18 1278.19 -183.16 C 1283.96 -181.11 1287.45 -179.87 1289.1 -176.38 C 1290.55 -173.34 1289.96 -170.14 1289.64 -168.91 C 1287.97 -162.43 1281.05 -159.57 1278.15 -158.64" style="transform-box: fill-box; transform-origin: 50% 50%; fill: rgb(251, 176, 64); stroke-width: 0px; stroke: rgb(186, 218, 85); stroke-opacity: 0;" fill-rule="nonzero" transform="matrix(-1, 0, 0, -1, -0.000077, 0.000039)"/>
    <path d="M 1274.44 -194.32 C 1272.96 -196.14 1271.45 -198.07 1270.02 -200.14 C 1263.69 -209.26 1261.03 -217.73 1258.89 -224.54 C 1252.22 -245.78 1252.95 -260.06 1256.16 -269.53 C 1254.71 -267 1253.46 -264.35 1252.45 -261.59 C 1244.76 -240.63 1250.71 -214.52 1266.67 -199.92 C 1268.62 -198.14 1271.17 -196.15 1274.44 -194.32" fill="#f09d2e" style="transform-box: fill-box; transform-origin: 50% 50%; stroke-width: 0px;" fill-rule="nonzero" transform="matrix(-1, 0, 0, -1, 0.000088, -0.000024)"/>
    <path d="M 1289.2 -135.99 C 1288.97 -136.47 1288.7 -136.93 1288.38 -137.35 C 1287.12 -138.98 1285.24 -139.92 1283.4 -140.72 C 1273.01 -145.25 1256.699 -147.368 1259.249 -147.708 C 1259.319 -147.718 1266.373 -148.524 1270.4 -147.52 C 1270.17 -148.28 1269.86 -148.97 1269.47 -149.6 C 1267.1 -153.4 1262.41 -153.94 1256.46 -154.6 C 1255.37 -154.72 1254.26 -154.85 1253.1 -155 C 1242.15 -156.44 1234.71 -162.21 1223.47 -170.96 C 1213.93 -178.38 1210.6 -185.36 1206.74 -193.44 C 1203.81 -199.58 1200.48 -206.54 1193.71 -215.02 C 1183.86 -227.37 1173.22 -236.3 1162.07 -241.57 C 1159.97 -242.57 1156.07 -244.41 1140.42 -248.08 C 1117.93 -253.33 1103.07 -256.82 1083.93 -257.05 L 1082.92 -257.06 C 1062.43 -257.31 1052.14 -257.44 1041.44 -251.54 C 1030.35 -245.43 1015.58 -231.75 1008.25 -201.29 C 1005.78 -191.03 1004.85 -179.19 1005.96 -167.21 C 1006.4 -172.09 1007.18 -176.81 1008.25 -181.22 C 1015.58 -211.68 1030.35 -225.36 1041.44 -231.48 C 1052.14 -237.38 1062.43 -237.25 1082.92 -237 L 1083.93 -236.99 C 1097.86 -236.86 1110.96 -233.8 1124.54 -231.48 C 1138.47 -229.11 1152.61 -226.23 1165.23 -219.31 C 1176.85 -212.95 1186.57 -203.45 1195.08 -193.08 C 1204.03 -182.19 1211.1 -170.93 1222.09 -162.07 C 1227.53 -157.69 1233.21 -153.66 1238.53 -149.11 C 1240.91 -147.06 1243.01 -144.68 1245.69 -143.11 C 1248.59 -141.42 1251.57 -140.06 1254.84 -139.39 C 1259.16 -138.5 1263.49 -139 1267.85 -138.6 C 1272.2 -138.2 1276.7 -136.28 1279.97 -133.16 C 1282.57 -130.69 1284.63 -127.28 1287.96 -126.17 C 1288.19 -126.09 1288.43 -126.03 1288.65 -126.11 C 1289.01 -126.23 1289.17 -126.65 1289.28 -127.02 C 1290.15 -129.94 1290.45 -133.32 1289.2 -135.99" fill="#f09d2e" style="stroke-width: 0px; transform-box: fill-box; transform-origin: 50% 50%;" fill-rule="nonzero" transform="matrix(-1, 0, 0, -1, 0.000038, -0.000294)"/>
    <path d="M 1289.12 -176.44 C 1287.46 -179.94 1283.97 -181.18 1278.2 -183.22 C 1278.16 -183.24 1276.33 -183.88 1273.49 -184.53 L 1273.5 -184.47 L 1271.87 -184.88 C 1268.01 -185.66 1262.85 -186.3 1257.74 -185.74 C 1257.67 -185.73 1257.46 -185.71 1257.17 -185.67 C 1254.79 -185.26 1252.07 -184.53 1250.59 -184.13 C 1249.13 -183.73 1248.08 -183.45 1247.75 -184.78 C 1247.42 -186.09 1248.43 -186.4 1249.96 -186.87 L 1251.408 -187.749 C 1253.738 -188.479 1255.54 -188.19 1256.8 -188.35 L 1259.104 -190.064 C 1263.344 -190.764 1265.75 -188.96 1270.36 -188 C 1270.15 -188.74 1269.83 -189.44 1269.44 -190.08 C 1267.07 -193.88 1262.37 -194.41 1256.42 -195.08 C 1255.34 -195.21 1254.22 -195.33 1253.07 -195.48 C 1242.11 -196.92 1234.68 -202.7 1223.43 -211.44 C 1213.89 -218.86 1210.56 -225.84 1206.71 -233.91 C 1203.77 -240.06 1200.45 -247.02 1193.68 -255.5 C 1183.82 -267.85 1173.18 -276.78 1162.03 -282.06 C 1159.93 -283.05 1156.03 -284.89 1140.39 -288.55 C 1117.9 -293.82 1103.03 -297.3 1083.9 -297.53 L 1082.88 -297.54 C 1062.39 -297.8 1052.11 -297.93 1041.4 -292.02 C 1030.31 -285.91 1015.55 -272.23 1008.21 -241.77 C 1001.27 -212.94 1006.56 -171.74 1034.58 -149.41 C 1040.36 -144.8 1046.93 -141.24 1054.12 -138.8 C 1055.03 -139.08 1055.63 -139.49 1055.87 -140 C 1056.75 -141.84 1053.22 -146.03 1049.48 -150.46 C 1047.11 -153.27 1044.42 -156.46 1041.96 -159.99 C 1035.63 -169.11 1032.97 -177.59 1030.84 -184.39 C 1021.36 -214.6 1026.83 -230.73 1033.1 -238.95 C 1047.62 -258 1077.97 -252.14 1087.94 -250.21 C 1100.7 -247.75 1119.8 -240.76 1138.29 -221.43 C 1145.97 -213.41 1149.42 -207.32 1155.13 -197.22 C 1160.4 -187.91 1167.62 -175.15 1181.98 -154.28 C 1189.09 -143.94 1192.93 -138.93 1199.91 -134.37 C 1200.15 -134.22 1223.45 -119.27 1247.51 -130.02 C 1253.63 -132.75 1268.25 -140.67 1271.88 -155.09 C 1272.05 -155.77 1272.17 -156.34 1272.24 -156.74 L 1272.43 -157.79 L 1273.44 -157.84 C 1275.05 -157.93 1276.64 -158.22 1278.16 -158.71 C 1281.06 -159.64 1287.99 -162.5 1289.66 -168.97 C 1289.98 -170.2 1290.56 -173.4 1289.12 -176.44 M 1292.14 -168.25 C 1290.72 -162.78 1285.9 -158.35 1278.91 -156.11 C 1277.49 -155.66 1276.03 -155.35 1274.56 -155.21 C 1274.5 -154.94 1274.43 -154.66 1274.36 -154.39 C 1270.44 -138.81 1254.98 -130.41 1248.51 -127.52 C 1223.24 -116.23 1199.56 -131.41 1198.56 -132.06 C 1191.22 -136.86 1187.05 -142.28 1179.89 -152.68 C 1165.47 -173.65 1158.22 -186.47 1152.92 -195.83 C 1147.31 -205.74 1143.93 -211.72 1136.48 -219.5 C 1118.45 -238.34 1099.88 -245.15 1087.48 -247.54 C 1061.72 -252.52 1044.1 -249.06 1035.1 -237.25 C 1029.24 -229.56 1024.16 -214.29 1033.28 -185.25 C 1035.46 -178.27 1037.95 -170.37 1044.04 -161.6 C 1046.42 -158.16 1049.06 -155.03 1051.4 -152.27 C 1056.3 -146.46 1059.83 -142.27 1058.17 -138.78 C 1057.54 -137.46 1056.27 -136.54 1054.38 -136.07 L 1054.04 -135.98 L 1053.7 -136.1 C 1046.09 -138.63 1039.14 -142.38 1033.03 -147.24 C 1020.36 -157.34 1011.13 -172.34 1006.35 -190.62 C 1001.95 -207.46 1001.72 -225.86 1005.72 -242.44 C 1013.29 -273.87 1028.66 -288.06 1040.21 -294.43 C 1049.41 -299.5 1058.09 -300.35 1072.33 -300.35 C 1075.55 -300.35 1079.06 -300.31 1082.91 -300.26 L 1083.93 -300.25 C 1103.33 -300 1118.3 -296.5 1140.95 -291.2 C 1156.85 -287.48 1160.9 -285.56 1163.12 -284.52 C 1174.59 -279.09 1185.53 -269.91 1195.64 -257.25 C 1202.61 -248.53 1206.01 -241.41 1209 -235.13 C 1212.86 -227.05 1215.91 -220.66 1224.96 -213.63 C 1236.27 -204.83 1243.09 -199.52 1253.38 -198.18 C 1254.52 -198.03 1255.62 -197.9 1256.69 -197.78 C 1263.05 -197.06 1268.55 -196.44 1271.59 -191.57 C 1272.35 -190.34 1272.88 -188.94 1273.15 -187.39 C 1276.56 -186.66 1278.82 -185.87 1279.02 -185.8 C 1285.2 -183.6 1289.29 -182.15 1291.42 -177.66 C 1293.26 -173.78 1292.54 -169.79 1292.14 -168.25" fill="#231f20" style="stroke-width: 0px; stroke: rgb(151, 198, 4); paint-order: stroke; fill-opacity: 0; transform-box: fill-box; transform-origin: 50% 50%;" fill-rule="nonzero" transform="matrix(-1, 0, 0, -1, 0.000252, -0.00002)"/>
    <path d="M 1095.02 -245.68 C 1094.97 -245.68 1092.13 -245.51 1092.09 -245.5 C 1083.42 -244.66 1079.07 -238.48 1076.84 -230.16 C 1074.09 -219.89 1078.07 -214.05 1078.78 -213.13 C 1079.41 -212.33 1080.63 -212.55 1080.97 -213.53 C 1081.13 -213.97 1081.05 -214.47 1080.77 -214.84 C 1080.15 -215.65 1076.92 -220.47 1079.31 -229.42 C 1081.26 -236.69 1085.19 -241.95 1092.8 -242.81 C 1093.78 -242.92 1094.29 -244.11 1093.71 -244.96 C 1093.47 -245.31 1093.08 -245.52 1092.67 -245.52" fill-rule="nonzero" style="transform-box: fill-box; transform-origin: 50% 50%; stroke-width: 0px; fill: rgb(240, 157, 46);" transform="matrix(-1, 0, 0, -1, 0, -0.000022)"/>
    <path d="M 1102.27 -222.81 C 1102.07 -222.81 1101.87 -222.76 1101.69 -222.66 C 1098.7 -221.06 1091.36 -216.3 1087.7 -206.66 C 1085.07 -199.68 1085.46 -193.29 1086.26 -189.16 C 1086.4 -188.42 1087.08 -187.95 1087.78 -188.1 C 1088.47 -188.25 1088.92 -188.96 1088.78 -189.7 C 1088.05 -193.47 1087.69 -199.3 1090.09 -205.65 C 1093.42 -214.43 1100.12 -218.78 1102.85 -220.24 C 1103.73 -220.72 1103.8 -222.02 1102.97 -222.59 C 1102.76 -222.73 1102.52 -222.81 1102.27 -222.81 M 1096.03 -232.53 C 1095.78 -232.53 1095.53 -232.45 1095.31 -232.29 C 1091.07 -229.25 1083.48 -222.41 1080.15 -210.82 C 1078.55 -205.23 1078.16 -199.17 1079.04 -193.27 C 1079.17 -192.24 1080.31 -191.74 1081.1 -192.38 C 1081.48 -192.69 1081.66 -193.2 1081.58 -193.7 C 1080.76 -199.18 1081.12 -204.83 1082.61 -210.03 C 1085.71 -220.82 1092.8 -227.21 1096.76 -230.05 C 1097.57 -230.64 1097.48 -231.95 1096.58 -232.4 C 1096.41 -232.49 1096.22 -232.53 1096.03 -232.53 M 1091.13 -242.27 C 1090.9 -242.27 1090.67 -242.21 1090.46 -242.07 C 1085.21 -238.64 1077.98 -232.34 1073.35 -221.75 C 1069.46 -212.86 1069.03 -204.51 1069.35 -199.06 C 1069.39 -198.31 1070 -197.74 1070.71 -197.79 C 1071.42 -197.84 1071.96 -198.48 1071.91 -199.23 C 1071.61 -204.36 1072.02 -212.24 1075.68 -220.61 C 1080.28 -231.11 1087.76 -237.11 1091.81 -239.76 C 1092.41 -240.15 1092.6 -240.99 1092.22 -241.63 C 1091.99 -242.03 1091.58 -242.27 1091.13 -242.27 M 1110.76 -202.72 C 1106.3 -202.72 1102.67 -198.89 1102.67 -194.19 C 1102.67 -189.48 1106.3 -185.65 1110.76 -185.65 C 1115.21 -185.65 1118.84 -189.48 1118.84 -194.19 C 1118.84 -198.89 1115.21 -202.72 1110.76 -202.72" fill-rule="nonzero" style="transform-box: fill-box; transform-origin: 50% 50%; stroke-width: 0px; fill: rgb(240, 157, 46);" transform="matrix(-1, 0, 0, -1, -0.000044, -0.000011)"/>
    <path d="M 1063.28 -249.46 C 1058.58 -243.27 1050.01 -242.27 1044.14 -247.22 C 1038.28 -252.18 1037.33 -261.23 1042.02 -267.42 C 1046.72 -273.61 1055.29 -274.61 1061.15 -269.66 C 1067.02 -264.7 1067.97 -255.65 1063.28 -249.46" fill="#fff" fill-rule="nonzero" style="transform-box: fill-box; transform-origin: 50% 50%; stroke-width: 0px;" transform="matrix(-1, 0, 0, -1, -0.000183, 0.000014)"/>
    <path d="M 1066.26 -264.01 C 1065.49 -265.23 1064.54 -266.32 1063.45 -267.24 C 1057.59 -272.2 1049.01 -271.19 1044.32 -265 C 1039.62 -258.81 1040.57 -249.76 1046.44 -244.8 C 1046.74 -244.54 1047.06 -244.3 1047.39 -244.07 C 1044.16 -249.14 1044.26 -256.03 1048.06 -261.05 C 1052.51 -266.91 1060.45 -268.13 1066.26 -264.01" fill="#eaebec" fill-rule="nonzero" style="transform-box: fill-box; transform-origin: 50% 50%; stroke-width: 0px;" transform="matrix(-1, 0, 0, -1, 0.000146, -0.000006)"/>
    <path d="M 1044.15 -247.22 L 1044.16 -247.22 L 1044.15 -247.22 Z M 1052.64 -245.43 C 1049.85 -245.42 1047.13 -246.43 1044.95 -248.28 C 1042.39 -250.43 1040.76 -253.57 1040.41 -257 C 1040.04 -260.43 1040.98 -263.87 1043.03 -266.56 C 1045.07 -269.26 1048.05 -270.99 1051.3 -271.36 C 1054.55 -271.75 1057.81 -270.76 1060.36 -268.59 C 1065.67 -264.11 1066.53 -255.9 1062.28 -250.3 C 1059.85 -247.1 1056.26 -245.43 1052.64 -245.43 M 1052.69 -274.16 C 1052.13 -274.16 1051.58 -274.12 1051.01 -274.06 C 1047.09 -273.61 1043.49 -271.52 1041.03 -268.26 C 1038.55 -265.01 1037.4 -260.85 1037.85 -256.7 C 1038.28 -252.55 1040.25 -248.76 1043.35 -246.16 C 1049.76 -240.74 1059.15 -241.84 1064.29 -248.61 C 1069.42 -255.38 1068.38 -265.29 1061.97 -270.71 C 1059.34 -272.94 1056.06 -274.16 1052.69 -274.16" fill="#231f20" fill-rule="nonzero" style="transform-box: fill-box; transform-origin: 50% 50%; stroke-width: 0px;" transform="matrix(-1, 0, 0, -1, 0.000002, -0.00001)"/>
    <path d="M 1046.36 -248 C 1049.8 -245.1 1054.83 -245.69 1057.58 -249.31 C 1060.33 -252.94 1059.77 -258.24 1056.33 -261.15 C 1052.9 -264.05 1047.87 -263.47 1045.12 -259.84 C 1042.37 -256.21 1042.93 -250.9 1046.36 -248" fill="#212121" style="transform-box: fill-box; transform-origin: 50% 50%; stroke-width: 0px;" transform="matrix(-1, 0, 0, -1, 0.000035, 0.000003)"/>
    <path d="M 1045.1 -256.62 C 1046.27 -255.62 1047.99 -255.82 1048.93 -257.05 C 1049.87 -258.3 1049.67 -260.11 1048.49 -261.1 C 1047.32 -262.1 1045.6 -261.9 1044.66 -260.66 C 1043.72 -259.43 1043.92 -257.61 1045.1 -256.62 M 1047.12 -263.7 C 1047.61 -263.28 1048.34 -263.37 1048.74 -263.89 C 1049.13 -264.41 1049.05 -265.18 1048.55 -265.6 C 1048.06 -266.02 1047.33 -265.94 1046.93 -265.41 C 1046.54 -264.89 1046.62 -264.12 1047.12 -263.7" fill="#fff" style="transform-box: fill-box; transform-origin: 50% 50%; stroke-width: 0px;" transform="matrix(-1, 0, 0, -1, -0.000003, 0.000022)"/>
    <g transform="matrix(-0.857092, 0, 0, 0.904694, 1313.964395, -355.153697)" style="">
      <path d="M 307.078 66.178 C 306.222 62.238 306.006 58.186 306.439 54.178 C 306.896 49.97 308.062 45.87 309.887 42.051 C 303.164 47.592 298.416 55.161 296.354 63.625 C 294.186 53.846 294.671 43.665 297.759 34.136 C 294.156 37.795 291.18 42.021 288.95 46.646 C 286.481 51.776 284.967 57.314 284.482 62.987 C 281.198 54.474 278.928 45.605 277.717 36.561 C 276.758 29.391 276.471 22.148 276.858 14.925 C 273.465 18.376 267.803 25.081 264.567 35.157 C 259.822 49.936 263.306 62.593 264.823 67.199 L 262.141 68.476 C 256.977 59.626 252.66 50.308 249.248 40.646 C 246.552 33.007 244.43 25.177 242.901 17.222 C 240.826 22.659 238.522 30.726 238.397 40.646 C 238.178 58.064 244.802 71.078 248.354 77.029 C 243.246 73.148 236.396 66.979 230.354 57.88 C 227.021 52.858 224.278 47.467 222.181 41.816 C 221.168 46.117 220.267 52.452 221.334 59.923 C 223.473 74.913 231.5 84.706 235.09 88.325 C 231.221 87.62 233.165 96.334 219.96 85.259 C 211.049 77.786 204.985 65.389 203.501 61.582 C 202.987 65.528 202.611 72.733 205.589 80.859 C 210.473 94.189 220.974 100.71 224.227 102.561 L 221.227 107.412 C 215.467 104.983 210.074 101.76 205.206 97.838 C 199.847 93.517 195.185 88.399 191.382 82.661 C 191.662 86.421 192.775 94.481 198.312 102.689 C 204.537 111.918 212.771 116.021 216.215 117.507 L 213.184 122.138 C 208.217 121.579 203.409 120.045 199.036 117.625 C 191.407 113.392 187.161 107.564 185.248 104.518 C 185.464 107.667 186.269 113.021 189.504 118.646 C 194.907 128.042 203.442 131.85 206.354 132.999 L 203.933 136.99 C 201.387 136.899 196.177 136.368 190.695 133.114 C 184.386 129.369 181.31 124.148 180.142 121.88 C 180.847 126.945 182.585 131.812 185.248 136.178 C 189.522 143.168 194.264 145.83 197.218 147.591 L 193.956 152.464 C 189.647 151.816 185.919 150.509 182.184 148.263 C 175.552 144.264 172.006 138.926 170.44 136.178 C 170.195 137.995 169.456 145.072 174.015 152.008 C 178.145 158.295 184.065 160.566 185.929 161.199 L 181.805 167.298 C 179.349 165.949 175.245 164.947 173.163 163.072 C 167.129 157.632 164.286 151.363 162.951 147.582 C 162.618 150.547 162.222 157.814 166.355 165.284 C 168.109 168.442 170.44 171.242 173.227 173.54 L 170.059 176.631 C 167.03 174.66 164.294 172.273 161.929 169.54 C 158.813 165.929 156.389 161.774 154.78 157.284 C 154.493 161.457 155.133 165.643 156.653 169.54 C 158.243 173.601 160.748 177.241 163.972 180.178 L 159.376 183.157 C 156.924 181.39 154.695 179.332 152.738 177.029 C 149.871 173.648 147.624 169.787 146.099 165.625 C 145.713 167.898 145.2 172.802 147.291 178.39 C 148.535 181.703 150.48 184.707 152.993 187.199 L 147.759 190.774 C 145.44 188.936 143.342 186.837 141.504 184.518 C 138.648 180.905 136.458 176.813 135.036 172.433 C 134.662 174.713 134.246 179.157 135.887 184.348 C 137.009 187.89 137.03 190.329 139.529 193.079 L 135.472 195.976 C 134.203 195.494 129.519 193.541 126.695 188.348 C 124.282 183.912 124.632 179.696 124.823 178.22 C 123.198 181.517 122.52 185.2 122.865 188.859 C 123.217 192.449 122.783 194.862 124.937 197.756 L 118.468 199.076 C 115.614 196.923 113.81 195.207 112.397 191.923 C 111.056 188.78 110.519 185.352 110.835 181.95 C 109.228 184.697 108.196 187.743 107.802 190.901 C 107.384 194.29 107.708 197.729 108.754 200.98 C 106.146 201.054 103.537 201.127 100.929 201.199 C 99.896 199.265 99.075 197.225 98.482 195.114 C 97.624 192.044 97.252 188.858 97.382 185.673 C 95.882 187.418 93.542 190.63 92.355 195.242 C 91.8 197.404 90.074 201.118 90.149 203.349 C 92.195 203.399 95.194 203.804 98.338 203.74 C 98.338 203.74 105.382 203.299 110.447 202.872 C 126.517 201.513 140.22 196.649 140.22 196.649 C 154.962 191.426 166.06 184.053 176.9 175.35 C 183.869 169.755 193.032 159.28 206.015 139.412 C 217.986 121.092 216.994 117.894 229.279 101.222 C 236.675 91.186 242.594 80.559 255.035 73.369 C 274.776 61.962 296.083 64.089 307.078 66.178" fill="#231f20" fill-rule="nonzero" style="stroke-width: 0px;"/>
    </g>
    <g fill-rule="nonzero" transform="matrix(-0.857092, 0, 0, 0.904694, 1313.964395, -355.153697)" style="">
      <path d="M215.485 284.183l-3.336-16.325 15.414 7.078c-7.699-11.954-13.767-24.683-18.071-37.916-2.236-6.876-3.455-13.402-4.53-19.16-1.62-8.671-2.898-15.518-6.659-16.52a4.605 4.605 0 00-1.18-.149c-3.846 0-8.202 4.366-9.731 5.898-7.702 7.715-8.015 18.455-8.183 24.227-.656 22.462 12.589 43.214 22.147 55.18l1.952-14.373 12.177 12.06z" fill="#f98a31" style="stroke-width: 0px;"/>
      <path d="M215.486 284.18l-12.174-12.057-.024.141c-.153-.353-.235-.682-.106-.8.294-.247 1.553.788 1.871 1.059 1.129.906 3.598 2.552 9.232 5.764v.011l1.201 5.882zM202.559 277.675l-1.2 8.822c-9.563-11.963-22.808-32.723-22.15-55.18.165-5.634.471-15.972 7.623-23.643a80.648 80.648 0 00-1.6 10.41c-.329 3.789-1.2 16.856 3.752 32.736 3.482 11.128 8.328 18.856 13.575 26.855M212.146 267.853l.011.071c-.224-.353-.352-.671-.235-.847.377-.577 2.846.764 5.939 1.729 2.872.894 4.965 1.034 6.6 1.117a159.86 159.86 0 003.105 5.011l-15.42-7.081z" fill="#e56c2c" style="stroke-width: 0px;"/>
      <path d="M179.209 231.316c.168-5.771.481-16.513 8.183-24.228 1.528-1.53 5.885-5.897 9.73-5.897.4 0 .796.048 1.18.15 3.762 1.001 5.041 7.848 6.66 16.52 1.075 5.756 2.294 12.282 4.53 19.16 4.304 13.233 10.373 25.961 18.07 37.915l-15.413-7.079 3.336 16.326-12.177-12.061-1.952 14.373c-9.558-11.966-22.802-32.717-22.147-55.179m58.46 52.145l-3.709-5.319c-9.18-13.161-16.282-27.363-21.111-42.213-2.166-6.658-3.363-13.066-4.418-18.717-1.921-10.28-3.308-17.709-9.22-19.281-6.059-1.608-12.273 4.617-14.317 6.665-8.691 8.705-9.044 20.803-9.213 26.618-.75 25.721 15.676 49.047 25.535 60.662l2.561 3.017 2.075-15.282 15.421 15.271-4.274-20.913 20.67 9.492z" style="stroke-width: 0px; fill: rgb(187, 182, 184); fill-opacity: 0;"/>
    </g>
    <g fill-rule="nonzero" transform="matrix(-0.857092, 0, 0, 0.904694, 1313.964395, -355.153697)" style="">
      <path d="M105.967 258.017l-1.524-3.239c-.502-1.086-1.11-2.169-1.684-3.203-1.179-2.072-2.494-4.031-4.025-5.773-3.029-3.491-7.073-6.049-11.476-7.63a1.764 1.764 0 01-1.067-2.256 1.76 1.76 0 012.25-1.069c4.894 1.733 9.498 4.602 12.983 8.586 1.742 1.965 3.199 4.132 4.472 6.35a77.84 77.84 0 011.272 2.349c.203-.112.389-.228.556-.341 5.743-5.792 7.451-14.4 3.981-21.268-2.88-5.7-8.974-9.394-15.908-9.643-14.795-.572-27.789 9.134-30.236 22.577-1.86 10.226 2.891 21.092 12.104 27.682l1.813 1.296-7.573 6.626 14.051-3.279-1.567 3.305a234.575 234.575 0 01-2.825 5.751 262.522 262.522 0 01-1.747 3.364l14.229-9.38.797 14.136c4.353-3.283 9.985-8.984 12.122-17.51 1.414-5.641.992-11.61-.943-17.311l-.055-.12z" fill="#f98a31" style="stroke-width: 0px;"/>
      <path d="M106.962 275.449c-2.13 8.528-7.764 14.221-12.116 17.503l-.106-1.882c2.799-4.011 6.352-10.504 7.399-19.021.482-3.963 1.188-9.68-1.353-15.985-1.929-4.8-6.14-10.951-8.857-13.068-.4-.307-1.965-1.459-3.235-3.529-.212-.341-.377-.659-.529-.942 4.046 1.589 7.751 4.035 10.563 7.282 1.54 1.741 2.858 3.692 4.034 5.764.577 1.035 1.176 2.117 1.682 3.211l1.518 3.235.058.117c1.941 5.705 2.365 11.669.942 17.315M107.726 251.794c-.165.106-.353.223-.553.341a77.877 77.877 0 00-1.282-2.353c-1.27-2.211-2.729-4.386-4.47-6.35-3.482-3.978-8.081-6.848-12.986-8.589a1.735 1.735 0 00-1.47.142c.011-.283.117-.565.305-.777.659-.728 2.247-.364 3.823.154 4.835 1.599 6.058 3.54 9.846 4.953 2.082.788 4.529 1.704 7.128.975 2.811-.776 4.176-3.023 5.246-4.598.812 5.656-1.223 11.691-5.587 16.102" fill="#e56c2c" style="stroke-width: 0px;"/>
      <path d="M93.964 278.872L79.813 288.2c.141-.259.271-.519.412-.776 0-.012.012-.024.023-.037a28.588 28.588 0 015.223-4.798c1.776-1.27 4.058-3.27 7.575-3.611.365-.035.659-.072.918-.106M85.53 275.872l-13.586 3.176c2.776-2.059 7.034-4.281 11.892-3.541.518.071 1.081.19 1.694.365" fill="#e56c2c" style="stroke-width: 0px;"/>
      <path d="M106.966 275.448c-2.138 8.527-7.77 14.227-12.123 17.51l-.797-14.135-14.229 9.379a231.008 231.008 0 004.572-9.115l1.567-3.306-14.051 3.279 7.573-6.626-1.813-1.295c-9.213-6.59-13.964-17.456-12.103-27.681 2.446-13.444 15.441-23.149 30.235-22.579 6.933.249 13.028 3.944 15.908 9.644 3.47 6.868 1.762 15.477-3.981 21.269a8.122 8.122 0 01-.556.341 75.489 75.489 0 00-1.272-2.349c-1.272-2.219-2.73-4.385-4.472-6.352-3.485-3.983-8.089-6.852-12.984-8.586a1.76 1.76 0 00-2.25 1.071 1.768 1.768 0 001.068 2.256c4.403 1.58 8.447 4.138 11.475 7.629 1.532 1.741 2.847 3.701 4.026 5.773.574 1.034 1.182 2.118 1.685 3.203l1.523 3.24.055.119c1.935 5.701 2.357 11.671.944 17.311m7.889-46.517c-3.46-6.846-10.714-11.283-18.927-11.578-16.51-.603-31.079 10.311-33.838 25.473-1.982 10.887 2.608 22.374 11.766 29.84l-14.908 13.045 20.647-4.821a225.302 225.302 0 01-6.29 11.833l-3.654 6.405 21.216-13.984.799 14.153 2.537-1.608c4.806-3.046 13.301-9.875 16.185-21.383 1.73-6.902 1.133-14.101-1.436-20.831 7.812-6.814 10.308-17.822 5.903-26.544" fill="#231f20" style="stroke-width: 0px; fill-opacity: 0;"/>
    </g>
  </g>
  <path style="stroke: rgb(35, 31, 32); fill: rgb(240, 90, 128); stroke-opacity: 0;" d="M 756.328 -10.628 C 753.835 -9.186 574.825 96.311 570.611 92.013 C 573.039 85.458 555.092 88.814 558.266 96.476 C 558.266 96.476 559.27 103.398 567.209 102.109 C 574.833 100.871 734.926 5.982 765.42 -12.246 C 768.699 -14.206 760.247 -12.894 756.328 -10.628 Z"/>
  <path style="fill: rgb(20, 85, 0); stroke: rgb(20, 85, 0);" d="M 750.108 -44.406 L 808.939 -59.645 C 816.569 -54.73 749.739 -39.341 749.448 -39.748 C 747.526 -39.321 748.965 -44.152 750.108 -44.406 Z"/>
  <path style="stroke: rgb(0, 0, 0); stroke-linecap: round; stroke-linejoin: round;" d="M 758.674 -32.62 L 775.124 -46.579 L 768.98 -50.451 L 757.281 -36.749 C 757.281 -36.749 757.281 -33.17 758.674 -32.62 Z"/>
</svg>